<svg width="24" height="24" viewBox="0 0 24 24" fill="none" xmlns="http://www.w3.org/2000/svg">
<path d="M10.8333 19H13.1667V16.6667H10.8333V19ZM12 0.333344C5.56001 0.333344 0.333344 5.56001 0.333344 12C0.333344 18.44 5.56001 23.6667 12 23.6667C18.44 23.6667 23.6667 18.44 23.6667 12C23.6667 5.56001 18.44 0.333344 12 0.333344ZM12 21.3333C6.85501 21.3333 2.66668 17.145 2.66668 12C2.66668 6.85501 6.85501 2.66668 12 2.66668C17.145 2.66668 21.3333 6.85501 21.3333 12C21.3333 17.145 17.145 21.3333 12 21.3333ZM12 5.00001C9.42168 5.00001 7.33334 7.08834 7.33334 9.66668H9.66668C9.66668 8.38334 10.7167 7.33334 12 7.33334C13.2833 7.33334 14.3333 8.38334 14.3333 9.66668C14.3333 12 10.8333 11.7083 10.8333 15.5H13.1667C13.1667 12.875 16.6667 12.5833 16.6667 9.66668C16.6667 7.08834 14.5783 5.00001 12 5.00001Z" fill="#777777"/>
</svg>
