<svg id="Capa_1" enable-background="new 0 0 512 512" height="512" viewBox="0 0 512 512" width="512" xmlns="http://www.w3.org/2000/svg"><g><path d="m32.828 56.134c0 4.143 3.357 7.5 7.5 7.5h54.622c4.143 0 7.5-3.357 7.5-7.5s-3.357-7.5-7.5-7.5h-54.622c-4.142 0-7.5 3.358-7.5 7.5z"/><path d="m426.853 335.167c-13.309 0-24.137 10.828-24.137 24.137v13.761h-3.635c-6.407 0-11.62 5.212-11.62 11.619v42.419c0 6.407 5.213 11.62 11.62 11.62h55.543c6.407 0 11.62-5.213 11.62-11.62v-42.419c0-6.407-5.213-11.619-11.62-11.619h-3.635v-13.761c0-13.308-10.828-24.137-24.136-24.137zm-9.137 24.137c0-5.038 4.099-9.137 9.137-9.137s9.137 4.099 9.137 9.137v13.761h-18.273v-13.761zm33.528 64.419h-48.783v-35.658h48.783z"/><path d="m504.5 373.071c4.143 0 7.5-3.357 7.5-7.5v-42.904c0-7.206-5.862-13.068-13.067-13.068h-39.946v-270.156c0-10.161-8.267-18.429-18.429-18.429h-331.428c-4.143 0-7.5 3.357-7.5 7.5s3.357 7.5 7.5 7.5h331.428c1.891 0 3.429 1.538 3.429 3.429v36.812h-428.987v-36.812c0-1.891 1.538-3.429 3.429-3.429h60.715c4.143 0 7.5-3.357 7.5-7.5s-3.357-7.5-7.5-7.5h-60.715c-10.162 0-18.429 8.268-18.429 18.429 0 16.963.001 349.377.001 357.085 0 10.161 8.267 18.428 18.428 18.428h323.276v10.586c0 4.171 2.015 8.124 5.388 10.571l72.078 52.369c2.297 1.669 4.989 2.504 7.682 2.504 2.691 0 5.384-.835 7.682-2.504l72.076-52.367c3.375-2.449 5.39-6.401 5.39-10.573v-29.983c0-4.143-3.357-7.5-7.5-7.5s-7.5 3.357-7.5 7.5v28.998l-70.146 50.966-70.148-50.966v-99.958h140.293v40.973c0 4.141 3.357 7.499 7.5 7.499zm-149.727-63.473c-7.206 0-13.068 5.862-13.068 13.068v77.289h-323.276c-1.89 0-3.428-1.538-3.428-3.428v-305.273h428.985v218.344z"/><path d="m359.575 116.66h-260.164c-7.462 0-13.532 6.07-13.532 13.532v24.932c0 7.462 6.07 13.532 13.532 13.532h260.164c7.462 0 13.532-6.07 13.532-13.532v-24.932c0-7.462-6.07-13.532-13.532-13.532zm-1.468 36.996h-257.228v-21.996h257.229v21.996z"/><path d="m218.385 216.633c-3.551-2.13-8.158-.979-10.29 2.573l-3.893 6.488c-2.131 3.552-.979 8.159 2.573 10.29 1.208.725 2.538 1.069 3.852 1.069 2.548 0 5.032-1.299 6.438-3.643l3.893-6.488c2.131-3.55.979-8.158-2.573-10.289z"/><path d="m265.127 272.97v-6.488c0-4.143-3.357-7.5-7.5-7.5s-7.5 3.357-7.5 7.5v6.488c0 4.143 3.357 7.5 7.5 7.5s7.5-3.357 7.5-7.5z"/><path d="m214.928 313.84 2.651 3.876c1.453 2.124 3.805 3.267 6.197 3.267 1.459 0 2.933-.425 4.228-1.311 3.419-2.339 4.295-7.006 1.956-10.425l-2.651-3.876c-2.34-3.419-7.006-4.294-10.425-1.956-3.419 2.339-4.295 7.006-1.956 10.425z"/><path d="m196.848 262.226h-3.672c-4.143 0-7.5 3.357-7.5 7.5s3.357 7.5 7.5 7.5h3.672c4.143 0 7.5-3.357 7.5-7.5s-3.358-7.5-7.5-7.5z"/><path d="m302.076 204.858c-17.238-16.104-39.734-24.599-63.33-23.85-45.761 1.398-83.477 38.28-85.864 83.966-.249 4.775-.118 9.589.388 14.309.441 4.118 4.139 7.107 8.257 6.657 4.118-.441 7.099-4.138 6.657-8.257-.421-3.931-.529-7.944-.321-11.927 1.982-37.953 33.32-68.593 71.343-69.756 18.983-.574 37.099 5.991 51.229 18.541l-19.909 22.433c-4.366 4.92-4.367 12.341-.002 17.262l18.966 21.378-19.89 23.629c-3.454 4.103-4.023 10.008-1.417 14.694l10.758 19.344c-11.317 6.683-24.214 10.206-37.421 10.206-27.608 0-52.691-15.228-65.46-39.741-1.914-3.674-6.447-5.103-10.116-3.187-3.674 1.913-5.101 6.442-3.187 10.116 15.361 29.491 45.541 47.812 78.763 47.812 16.636 0 32.867-4.647 46.94-13.439 5.904-3.689 7.89-11.325 4.521-17.383l-11.02-19.814 20.115-23.897c4.125-4.901 4.029-12.211-.222-17.003l-18.935-21.344 20.038-22.579c4.718-5.319 4.331-13.299-.881-18.17z"/></g></svg>