<svg width="353" height="127" viewBox="0 0 353 127" fill="none" xmlns="http://www.w3.org/2000/svg">
<path d="M113.06 26V2.54H128.36V5.124H115.916V12.4H127.34V14.984H115.916V23.416H128.36V26H113.06ZM134.135 20.798V7.742C134.135 4.274 135.869 2.54 139.337 2.54H148.925L150.455 3.73V5.124H139.303C137.761 5.124 136.991 5.89467 136.991 7.436V21.104C136.991 22.6453 137.761 23.416 139.303 23.416H150.455V24.81L148.925 26H139.337C135.869 26 134.135 24.266 134.135 20.798ZM156.247 20.798V7.742C156.247 4.274 157.981 2.54 161.449 2.54H169.405C172.873 2.54 174.607 4.274 174.607 7.742V20.798C174.607 24.266 172.873 26 169.405 26H161.449C157.981 26 156.247 24.266 156.247 20.798ZM159.103 21.104C159.103 22.6453 159.873 23.416 161.415 23.416H169.439C170.98 23.416 171.751 22.6453 171.751 21.104V7.436C171.751 5.89467 170.98 5.124 169.439 5.124H161.415C159.873 5.124 159.103 5.89467 159.103 7.436V21.104ZM180.733 24.81V23.416H191.205C192.747 23.416 193.517 22.6453 193.517 21.104V18.316C193.517 17.024 192.939 16.2647 191.783 16.038L184.473 14.576C181.98 14.0773 180.733 12.4 180.733 9.544V7.742C180.733 4.274 182.467 2.54 185.935 2.54H194.163L195.693 3.73V5.124H185.901C184.36 5.124 183.589 5.89467 183.589 7.436V9.748C183.589 11.04 184.167 11.7993 185.323 12.026L192.633 13.488C195.127 13.9867 196.373 15.664 196.373 18.52V20.798C196.373 24.266 194.639 26 191.171 26H182.263L180.733 24.81ZM201.816 24.81V23.416H212.288C213.829 23.416 214.6 22.6453 214.6 21.104V18.316C214.6 17.024 214.022 16.2647 212.866 16.038L205.556 14.576C203.063 14.0773 201.816 12.4 201.816 9.544V7.742C201.816 4.274 203.55 2.54 207.018 2.54H215.246L216.776 3.73V5.124H206.984C205.443 5.124 204.672 5.89467 204.672 7.436V9.748C204.672 11.04 205.25 11.7993 206.406 12.026L213.716 13.488C216.209 13.9867 217.456 15.664 217.456 18.52V20.798C217.456 24.266 215.722 26 212.254 26H203.346L201.816 24.81ZM223.919 26V2.54H226.775V26H223.919ZM233.223 24.81V23.416H243.695C245.237 23.416 246.007 22.6453 246.007 21.104V18.316C246.007 17.024 245.429 16.2647 244.273 16.038L236.963 14.576C234.47 14.0773 233.223 12.4 233.223 9.544V7.742C233.223 4.274 234.957 2.54 238.425 2.54H246.653L248.183 3.73V5.124H238.391C236.85 5.124 236.079 5.89467 236.079 7.436V9.748C236.079 11.04 236.657 11.7993 237.813 12.026L245.123 13.488C247.617 13.9867 248.863 15.664 248.863 18.52V20.798C248.863 24.266 247.129 26 243.661 26H234.753L233.223 24.81ZM253.082 5.124V2.54H271.578V5.124H263.758V26H260.902V5.124H253.082ZM276.807 26V2.54H292.107V5.124H279.663V12.4H291.087V14.984H279.663V23.416H292.107V26H276.807ZM298.222 26V2.54H301.996L309.952 19.472L317.908 2.54H321.682V26H318.826V6.824L311.414 22.6H308.49L301.078 6.824V26H298.222ZM326.786 25.388L334.47 2.54H339.162L346.846 25.388L346.438 26H344.092L342.154 20.084H331.478L329.54 26H327.194L326.786 25.388ZM332.328 17.5H341.304L337.224 5.124H336.408L332.328 17.5ZM113.06 73V49.54H122.24C127.907 49.54 130.74 52.3733 130.74 58.04V64.5C130.74 70.1667 127.907 73 122.24 73H113.06ZM115.916 70.416H122.41C126.059 70.416 127.884 68.5913 127.884 64.942V57.598C127.884 53.9487 126.059 52.124 122.41 52.124H115.916V70.416ZM138.549 73V49.54H153.849V52.124H141.405V59.4H152.829V61.984H141.405V70.416H153.849V73H138.549ZM171.532 73V49.54H174.388V73H171.532ZM182.877 73V49.54H186.039L198.381 68.58V49.54H201.237V73H198.075L185.733 53.96V73H182.877ZM209.388 67.798V54.742C209.388 51.274 211.122 49.54 214.59 49.54H222.546C226.014 49.54 227.748 51.274 227.748 54.742V67.798C227.748 71.266 226.014 73 222.546 73H214.59C211.122 73 209.388 71.266 209.388 67.798ZM212.244 68.104C212.244 69.6453 213.014 70.416 214.556 70.416H222.58C224.121 70.416 224.892 69.6453 224.892 68.104V54.436C224.892 52.8947 224.121 52.124 222.58 52.124H214.556C213.014 52.124 212.244 52.8947 212.244 54.436V68.104ZM233.534 50.152L233.942 49.54H236.356L242.986 70.416H243.802L250.432 49.54H252.846L253.254 50.152L245.842 73H240.946L233.534 50.152ZM255.637 72.388L263.321 49.54H268.013L275.697 72.388L275.289 73H272.943L271.005 67.084H260.329L258.391 73H256.045L255.637 72.388ZM261.179 64.5H270.155L266.075 52.124H265.259L261.179 64.5ZM281.473 67.798V54.742C281.473 51.274 283.207 49.54 286.675 49.54H296.263L297.793 50.73V52.124H286.641C285.1 52.124 284.329 52.8947 284.329 54.436V68.104C284.329 69.6453 285.1 70.416 286.641 70.416H297.793V71.81L296.263 73H286.675C283.207 73 281.473 71.266 281.473 67.798ZM286.573 77.148H289.973C290.698 77.148 291.061 76.7853 291.061 76.06V71.81H293.237V75.72C293.237 77.9867 292.104 79.12 289.837 79.12H287.661L286.573 78.27V77.148ZM302.565 72.388L310.249 49.54H314.941L322.625 72.388L322.217 73H319.871L317.933 67.084H307.257L305.319 73H302.973L302.565 72.388ZM308.107 64.5H317.083L313.003 52.124H312.187L308.107 64.5ZM307.325 45.868L309.161 44.032C309.66 43.5333 310.238 43.284 310.895 43.284C311.552 43.284 312.13 43.5333 312.629 44.032L313.717 45.12C313.898 45.3013 314.091 45.392 314.295 45.392C314.499 45.392 314.692 45.3013 314.873 45.12L316.539 43.454L317.865 44.78L316.029 46.616C315.53 47.1147 314.952 47.364 314.295 47.364C313.638 47.364 313.06 47.1147 312.561 46.616L311.473 45.528C311.292 45.3467 311.099 45.256 310.895 45.256C310.691 45.256 310.498 45.3467 310.317 45.528L308.651 47.194L307.325 45.868ZM328.401 67.798V54.742C328.401 51.274 330.135 49.54 333.603 49.54H341.559C345.027 49.54 346.761 51.274 346.761 54.742V67.798C346.761 71.266 345.027 73 341.559 73H333.603C330.135 73 328.401 71.266 328.401 67.798ZM331.257 68.104C331.257 69.6453 332.028 70.416 333.569 70.416H341.593C343.134 70.416 343.905 69.6453 343.905 68.104V54.436C343.905 52.8947 343.134 52.124 341.593 52.124H333.569C332.028 52.124 331.257 52.8947 331.257 54.436V68.104ZM112.72 114.798V101.742C112.72 98.274 114.454 96.54 117.922 96.54H127.51L129.04 97.73V99.124H117.888C116.347 99.124 115.576 99.8947 115.576 101.436V115.104C115.576 116.645 116.347 117.416 117.888 117.416H129.04V118.81L127.51 120H117.922C114.454 120 112.72 118.266 112.72 114.798ZM143.332 120V96.54H158.632V99.124H146.188V106.4H157.612V108.984H146.188V117.416H158.632V120H143.332ZM170.527 119.388L178.211 96.54H182.903L190.587 119.388L190.179 120H187.833L185.895 114.084H175.219L173.281 120H170.935L170.527 119.388ZM176.069 111.5H185.045L180.965 99.124H180.149L176.069 111.5ZM203.843 120V96.54H214.961C218.429 96.54 220.163 98.274 220.163 101.742V105.482C220.163 108.429 218.905 110.129 216.389 110.582L220.843 119.32L220.469 120H218.055L213.329 110.684H206.699V120H203.843ZM206.699 108.1H214.995C216.536 108.1 217.307 107.329 217.307 105.788V101.436C217.307 99.8947 216.536 99.124 214.995 99.124H206.699V108.1ZM235.111 120V96.54H250.411V99.124H237.967V106.4H249.391V108.984H237.967V117.416H250.411V120H235.111ZM264.685 120V96.54H267.847L280.189 115.58V96.54H283.045V120H279.883L267.541 100.96V120H264.685ZM297.656 118.81V117.416H308.128C309.669 117.416 310.44 116.645 310.44 115.104V112.316C310.44 111.024 309.862 110.265 308.706 110.038L301.396 108.576C298.903 108.077 297.656 106.4 297.656 103.544V101.742C297.656 98.274 299.39 96.54 302.858 96.54H311.086L312.616 97.73V99.124H302.824C301.283 99.124 300.512 99.8947 300.512 101.436V103.748C300.512 105.04 301.09 105.799 302.246 106.026L309.556 107.488C312.049 107.987 313.296 109.664 313.296 112.52V114.798C313.296 118.266 311.562 120 308.094 120H299.186L297.656 118.81ZM327.919 120V96.54H343.219V99.124H330.775V106.4H342.199V108.984H330.775V117.416H343.219V120H327.919Z" fill="white"/>
<path d="M113.06 26H111.56V27.5H113.06V26ZM113.06 2.54V1.04H111.56V2.54H113.06ZM128.36 2.54H129.86V1.04H128.36V2.54ZM128.36 5.124V6.624H129.86V5.124H128.36ZM115.916 5.124V3.624H114.416V5.124H115.916ZM115.916 12.4H114.416V13.9H115.916V12.4ZM127.34 12.4H128.84V10.9H127.34V12.4ZM127.34 14.984V16.484H128.84V14.984H127.34ZM115.916 14.984V13.484H114.416V14.984H115.916ZM115.916 23.416H114.416V24.916H115.916V23.416ZM128.36 23.416H129.86V21.916H128.36V23.416ZM128.36 26V27.5H129.86V26H128.36ZM114.56 26V2.54H111.56V26H114.56ZM113.06 4.04H128.36V1.04H113.06V4.04ZM126.86 2.54V5.124H129.86V2.54H126.86ZM128.36 3.624H115.916V6.624H128.36V3.624ZM114.416 5.124V12.4H117.416V5.124H114.416ZM115.916 13.9H127.34V10.9H115.916V13.9ZM125.84 12.4V14.984H128.84V12.4H125.84ZM127.34 13.484H115.916V16.484H127.34V13.484ZM114.416 14.984V23.416H117.416V14.984H114.416ZM115.916 24.916H128.36V21.916H115.916V24.916ZM126.86 23.416V26H129.86V23.416H126.86ZM128.36 24.5H113.06V27.5H128.36V24.5ZM148.925 2.54L149.846 1.35597L149.439 1.04H148.925V2.54ZM150.455 3.73H151.955V2.99637L151.376 2.54597L150.455 3.73ZM150.455 5.124V6.624H151.955V5.124H150.455ZM150.455 23.416H151.955V21.916H150.455V23.416ZM150.455 24.81L151.376 25.994L151.955 25.5436V24.81H150.455ZM148.925 26V27.5H149.439L149.846 27.184L148.925 26ZM135.635 20.798V7.742H132.635V20.798H135.635ZM135.635 7.742C135.635 6.23922 136.009 5.38764 136.496 4.90116C136.982 4.41468 137.834 4.04 139.337 4.04V1.04C137.371 1.04 135.622 1.53232 134.375 2.77984C133.127 4.02736 132.635 5.77678 132.635 7.742H135.635ZM139.337 4.04H148.925V1.04H139.337V4.04ZM148.004 3.72403L149.534 4.91403L151.376 2.54597L149.846 1.35597L148.004 3.72403ZM148.955 3.73V5.124H151.955V3.73H148.955ZM150.455 3.624H139.303V6.624H150.455V3.624ZM139.303 3.624C138.301 3.624 137.274 3.87549 136.508 4.64134C135.742 5.40719 135.491 6.43412 135.491 7.436H138.491C138.491 6.89655 138.625 6.76747 138.629 6.76266C138.634 6.75785 138.763 6.624 139.303 6.624V3.624ZM135.491 7.436V21.104H138.491V7.436H135.491ZM135.491 21.104C135.491 22.1059 135.742 23.1328 136.508 23.8987C137.274 24.6645 138.301 24.916 139.303 24.916V21.916C138.763 21.916 138.634 21.7822 138.629 21.7773C138.625 21.7725 138.491 21.6434 138.491 21.104H135.491ZM139.303 24.916H150.455V21.916H139.303V24.916ZM148.955 23.416V24.81H151.955V23.416H148.955ZM149.534 23.626L148.004 24.816L149.846 27.184L151.376 25.994L149.534 23.626ZM148.925 24.5H139.337V27.5H148.925V24.5ZM139.337 24.5C137.834 24.5 136.982 24.1253 136.496 23.6388C136.009 23.1524 135.635 22.3008 135.635 20.798H132.635C132.635 22.7632 133.127 24.5126 134.375 25.7602C135.622 27.0077 137.371 27.5 139.337 27.5V24.5ZM157.747 20.798V7.742H154.747V20.798H157.747ZM157.747 7.742C157.747 6.23922 158.121 5.38764 158.608 4.90116C159.094 4.41468 159.946 4.04 161.449 4.04V1.04C159.483 1.04 157.734 1.53232 156.486 2.77984C155.239 4.02736 154.747 5.77678 154.747 7.742H157.747ZM161.449 4.04H169.405V1.04H161.449V4.04ZM169.405 4.04C170.907 4.04 171.759 4.41468 172.245 4.90116C172.732 5.38764 173.107 6.23922 173.107 7.742H176.107C176.107 5.77678 175.614 4.02736 174.367 2.77984C173.119 1.53232 171.37 1.04 169.405 1.04V4.04ZM173.107 7.742V20.798H176.107V7.742H173.107ZM173.107 20.798C173.107 22.3008 172.732 23.1524 172.245 23.6388C171.759 24.1253 170.907 24.5 169.405 24.5V27.5C171.37 27.5 173.119 27.0077 174.367 25.7602C175.614 24.5126 176.107 22.7632 176.107 20.798H173.107ZM169.405 24.5H161.449V27.5H169.405V24.5ZM161.449 24.5C159.946 24.5 159.094 24.1253 158.608 23.6388C158.121 23.1524 157.747 22.3008 157.747 20.798H154.747C154.747 22.7632 155.239 24.5126 156.486 25.7602C157.734 27.0077 159.483 27.5 161.449 27.5V24.5ZM157.603 21.104C157.603 22.1059 157.854 23.1328 158.62 23.8987C159.386 24.6645 160.413 24.916 161.415 24.916V21.916C160.875 21.916 160.746 21.7822 160.741 21.7773C160.736 21.7725 160.603 21.6434 160.603 21.104H157.603ZM161.415 24.916H169.439V21.916H161.415V24.916ZM169.439 24.916C170.441 24.916 171.467 24.6645 172.233 23.8987C172.999 23.1328 173.251 22.1059 173.251 21.104H170.251C170.251 21.6434 170.117 21.7725 170.112 21.7773C170.107 21.7822 169.978 21.916 169.439 21.916V24.916ZM173.251 21.104V7.436H170.251V21.104H173.251ZM173.251 7.436C173.251 6.43412 172.999 5.40719 172.233 4.64134C171.467 3.87549 170.441 3.624 169.439 3.624V6.624C169.978 6.624 170.107 6.75785 170.112 6.76266C170.117 6.76747 170.251 6.89655 170.251 7.436H173.251ZM169.439 3.624H161.415V6.624H169.439V3.624ZM161.415 3.624C160.413 3.624 159.386 3.87549 158.62 4.64134C157.854 5.40719 157.603 6.43412 157.603 7.436H160.603C160.603 6.89655 160.736 6.76747 160.741 6.76266C160.746 6.75785 160.875 6.624 161.415 6.624V3.624ZM157.603 7.436V21.104H160.603V7.436H157.603ZM180.733 24.81H179.233V25.5436L179.812 25.994L180.733 24.81ZM180.733 23.416V21.916H179.233V23.416H180.733ZM191.783 16.038L191.489 17.5089L191.495 17.51L191.783 16.038ZM184.473 14.576L184.767 13.1051L184.473 14.576ZM194.163 2.54L195.084 1.35597L194.678 1.04H194.163V2.54ZM195.693 3.73H197.193V2.99637L196.614 2.54597L195.693 3.73ZM195.693 5.124V6.624H197.193V5.124H195.693ZM185.323 12.026L185.617 10.5551L185.612 10.554L185.323 12.026ZM192.633 13.488L192.927 12.0171L192.633 13.488ZM182.263 26L181.342 27.184L181.749 27.5H182.263V26ZM182.233 24.81V23.416H179.233V24.81H182.233ZM180.733 24.916H191.205V21.916H180.733V24.916ZM191.205 24.916C192.207 24.916 193.234 24.6645 194 23.8987C194.766 23.1328 195.017 22.1059 195.017 21.104H192.017C192.017 21.6434 191.883 21.7725 191.879 21.7773C191.874 21.7822 191.745 21.916 191.205 21.916V24.916ZM195.017 21.104V18.316H192.017V21.104H195.017ZM195.017 18.316C195.017 17.4567 194.825 16.5885 194.277 15.869C193.717 15.1327 192.922 14.7328 192.072 14.566L191.495 17.51C191.8 17.5699 191.873 17.6629 191.89 17.686C191.921 17.7259 192.017 17.8833 192.017 18.316H195.017ZM192.077 14.5671L184.767 13.1051L184.179 16.0469L191.489 17.5089L192.077 14.5671ZM184.767 13.1051C183.802 12.9121 183.228 12.5284 182.872 12.0492C182.5 11.5491 182.233 10.7659 182.233 9.544H179.233C179.233 11.1781 179.589 12.6616 180.464 13.8388C181.355 15.0369 182.651 15.7413 184.179 16.0469L184.767 13.1051ZM182.233 9.544V7.742H179.233V9.544H182.233ZM182.233 7.742C182.233 6.23922 182.608 5.38764 183.094 4.90116C183.581 4.41468 184.433 4.04 185.935 4.04V1.04C183.97 1.04 182.221 1.53232 180.973 2.77984C179.726 4.02736 179.233 5.77678 179.233 7.742H182.233ZM185.935 4.04H194.163V1.04H185.935V4.04ZM193.242 3.72403L194.772 4.91403L196.614 2.54597L195.084 1.35597L193.242 3.72403ZM194.193 3.73V5.124H197.193V3.73H194.193ZM195.693 3.624H185.901V6.624H195.693V3.624ZM185.901 3.624C184.899 3.624 183.872 3.87549 183.107 4.64134C182.341 5.40719 182.089 6.43412 182.089 7.436H185.089C185.089 6.89655 185.223 6.76747 185.228 6.76266C185.233 6.75785 185.362 6.624 185.901 6.624V3.624ZM182.089 7.436V9.748H185.089V7.436H182.089ZM182.089 9.748C182.089 10.6073 182.282 11.4755 182.829 12.195C183.39 12.9313 184.184 13.3312 185.035 13.498L185.612 10.554C185.306 10.4941 185.234 10.4011 185.216 10.378C185.186 10.3381 185.089 10.1807 185.089 9.748H182.089ZM185.029 13.4969L192.339 14.9589L192.927 12.0171L185.617 10.5551L185.029 13.4969ZM192.339 14.9589C193.304 15.1519 193.878 15.5356 194.234 16.0148C194.606 16.5149 194.873 17.2981 194.873 18.52H197.873C197.873 16.8859 197.517 15.4024 196.642 14.2252C195.752 13.0271 194.455 12.3227 192.927 12.0171L192.339 14.9589ZM194.873 18.52V20.798H197.873V18.52H194.873ZM194.873 20.798C194.873 22.3008 194.499 23.1524 194.012 23.6388C193.526 24.1253 192.674 24.5 191.171 24.5V27.5C193.136 27.5 194.886 27.0077 196.133 25.7602C197.381 24.5126 197.873 22.7632 197.873 20.798H194.873ZM191.171 24.5H182.263V27.5H191.171V24.5ZM183.184 24.816L181.654 23.626L179.812 25.994L181.342 27.184L183.184 24.816ZM201.816 24.81H200.316V25.5436L200.895 25.994L201.816 24.81ZM201.816 23.416V21.916H200.316V23.416H201.816ZM212.866 16.038L212.572 17.5089L212.577 17.51L212.866 16.038ZM205.556 14.576L205.85 13.1051L205.556 14.576ZM215.246 2.54L216.167 1.35597L215.761 1.04H215.246V2.54ZM216.776 3.73H218.276V2.99637L217.697 2.54597L216.776 3.73ZM216.776 5.124V6.624H218.276V5.124H216.776ZM206.406 12.026L206.7 10.5551L206.695 10.554L206.406 12.026ZM213.716 13.488L214.01 12.0171L213.716 13.488ZM203.346 26L202.425 27.184L202.831 27.5H203.346V26ZM203.316 24.81V23.416H200.316V24.81H203.316ZM201.816 24.916H212.288V21.916H201.816V24.916ZM212.288 24.916C213.29 24.916 214.317 24.6645 215.083 23.8987C215.848 23.1328 216.1 22.1059 216.1 21.104H213.1C213.1 21.6434 212.966 21.7725 212.961 21.7773C212.956 21.7822 212.827 21.916 212.288 21.916V24.916ZM216.1 21.104V18.316H213.1V21.104H216.1ZM216.1 18.316C216.1 17.4567 215.908 16.5885 215.36 15.869C214.8 15.1327 214.005 14.7328 213.155 14.566L212.577 17.51C212.883 17.5699 212.955 17.6629 212.973 17.686C213.003 17.7259 213.1 17.8833 213.1 18.316H216.1ZM213.16 14.5671L205.85 13.1051L205.262 16.0469L212.572 17.5089L213.16 14.5671ZM205.85 13.1051C204.885 12.9121 204.311 12.5284 203.955 12.0492C203.583 11.5491 203.316 10.7659 203.316 9.544H200.316C200.316 11.1781 200.672 12.6616 201.547 13.8388C202.438 15.0369 203.734 15.7413 205.262 16.0469L205.85 13.1051ZM203.316 9.544V7.742H200.316V9.544H203.316ZM203.316 7.742C203.316 6.23922 203.691 5.38764 204.177 4.90116C204.664 4.41468 205.515 4.04 207.018 4.04V1.04C205.053 1.04 203.303 1.53232 202.056 2.77984C200.808 4.02736 200.316 5.77678 200.316 7.742H203.316ZM207.018 4.04H215.246V1.04H207.018V4.04ZM214.325 3.72403L215.855 4.91403L217.697 2.54597L216.167 1.35597L214.325 3.72403ZM215.276 3.73V5.124H218.276V3.73H215.276ZM216.776 3.624H206.984V6.624H216.776V3.624ZM206.984 3.624C205.982 3.624 204.955 3.87549 204.189 4.64134C203.423 5.40719 203.172 6.43412 203.172 7.436H206.172C206.172 6.89655 206.306 6.76747 206.311 6.76266C206.315 6.75785 206.444 6.624 206.984 6.624V3.624ZM203.172 7.436V9.748H206.172V7.436H203.172ZM203.172 9.748C203.172 10.6073 203.364 11.4755 203.912 12.195C204.472 12.9313 205.267 13.3312 206.117 13.498L206.695 10.554C206.389 10.4941 206.317 10.4011 206.299 10.378C206.269 10.3381 206.172 10.1807 206.172 9.748H203.172ZM206.112 13.4969L213.422 14.9589L214.01 12.0171L206.7 10.5551L206.112 13.4969ZM213.422 14.9589C214.387 15.1519 214.961 15.5356 215.317 16.0148C215.689 16.5149 215.956 17.2981 215.956 18.52H218.956C218.956 16.8859 218.6 15.4024 217.725 14.2252C216.834 13.0271 215.538 12.3227 214.01 12.0171L213.422 14.9589ZM215.956 18.52V20.798H218.956V18.52H215.956ZM215.956 20.798C215.956 22.3008 215.581 23.1524 215.095 23.6388C214.608 24.1253 213.757 24.5 212.254 24.5V27.5C214.219 27.5 215.969 27.0077 217.216 25.7602C218.464 24.5126 218.956 22.7632 218.956 20.798H215.956ZM212.254 24.5H203.346V27.5H212.254V24.5ZM204.267 24.816L202.737 23.626L200.895 25.994L202.425 27.184L204.267 24.816ZM223.919 26H222.419V27.5H223.919V26ZM223.919 2.54V1.04H222.419V2.54H223.919ZM226.775 2.54H228.275V1.04H226.775V2.54ZM226.775 26V27.5H228.275V26H226.775ZM225.419 26V2.54H222.419V26H225.419ZM223.919 4.04H226.775V1.04H223.919V4.04ZM225.275 2.54V26H228.275V2.54H225.275ZM226.775 24.5H223.919V27.5H226.775V24.5ZM233.223 24.81H231.723V25.5436L232.303 25.994L233.223 24.81ZM233.223 23.416V21.916H231.723V23.416H233.223ZM244.273 16.038L243.979 17.5089L243.985 17.51L244.273 16.038ZM236.963 14.576L237.258 13.1051L236.963 14.576ZM246.653 2.54L247.574 1.35597L247.168 1.04H246.653V2.54ZM248.183 3.73H249.683V2.99637L249.104 2.54597L248.183 3.73ZM248.183 5.124V6.624H249.683V5.124H248.183ZM237.813 12.026L238.108 10.5551L238.102 10.554L237.813 12.026ZM245.123 13.488L245.418 12.0171L245.123 13.488ZM234.753 26L233.833 27.184L234.239 27.5H234.753V26ZM234.723 24.81V23.416H231.723V24.81H234.723ZM233.223 24.916H243.695V21.916H233.223V24.916ZM243.695 24.916C244.697 24.916 245.724 24.6645 246.49 23.8987C247.256 23.1328 247.507 22.1059 247.507 21.104H244.507C244.507 21.6434 244.374 21.7725 244.369 21.7773C244.364 21.7822 244.235 21.916 243.695 21.916V24.916ZM247.507 21.104V18.316H244.507V21.104H247.507ZM247.507 18.316C247.507 17.4567 247.315 16.5885 246.768 15.869C246.207 15.1327 245.412 14.7328 244.562 14.566L243.985 17.51C244.29 17.5699 244.363 17.6629 244.38 17.686C244.411 17.7259 244.507 17.8833 244.507 18.316H247.507ZM244.568 14.5671L237.258 13.1051L236.669 16.0469L243.979 17.5089L244.568 14.5671ZM237.258 13.1051C236.292 12.9121 235.719 12.5284 235.362 12.0492C234.991 11.5491 234.723 10.7659 234.723 9.544H231.723C231.723 11.1781 232.08 12.6616 232.955 13.8388C233.845 15.0369 235.141 15.7413 236.669 16.0469L237.258 13.1051ZM234.723 9.544V7.742H231.723V9.544H234.723ZM234.723 7.742C234.723 6.23922 235.098 5.38764 235.585 4.90116C236.071 4.41468 236.923 4.04 238.425 4.04V1.04C236.46 1.04 234.711 1.53232 233.463 2.77984C232.216 4.02736 231.723 5.77678 231.723 7.742H234.723ZM238.425 4.04H246.653V1.04H238.425V4.04ZM245.733 3.72403L247.263 4.91403L249.104 2.54597L247.574 1.35597L245.733 3.72403ZM246.683 3.73V5.124H249.683V3.73H246.683ZM248.183 3.624H238.391V6.624H248.183V3.624ZM238.391 3.624C237.39 3.624 236.363 3.87549 235.597 4.64134C234.831 5.40719 234.579 6.43412 234.579 7.436H237.579C237.579 6.89655 237.713 6.76747 237.718 6.76266C237.723 6.75785 237.852 6.624 238.391 6.624V3.624ZM234.579 7.436V9.748H237.579V7.436H234.579ZM234.579 9.748C234.579 10.6073 234.772 11.4755 235.319 12.195C235.88 12.9313 236.674 13.3312 237.525 13.498L238.102 10.554C237.796 10.4941 237.724 10.4011 237.706 10.378C237.676 10.3381 237.579 10.1807 237.579 9.748H234.579ZM237.519 13.4969L244.829 14.9589L245.418 12.0171L238.108 10.5551L237.519 13.4969ZM244.829 14.9589C245.795 15.1519 246.368 15.5356 246.725 16.0148C247.096 16.5149 247.363 17.2981 247.363 18.52H250.363C250.363 16.8859 250.007 15.4024 249.132 14.2252C248.242 13.0271 246.946 12.3227 245.418 12.0171L244.829 14.9589ZM247.363 18.52V20.798H250.363V18.52H247.363ZM247.363 20.798C247.363 22.3008 246.989 23.1524 246.502 23.6388C246.016 24.1253 245.164 24.5 243.661 24.5V27.5C245.627 27.5 247.376 27.0077 248.624 25.7602C249.871 24.5126 250.363 22.7632 250.363 20.798H247.363ZM243.661 24.5H234.753V27.5H243.661V24.5ZM235.674 24.816L234.144 23.626L232.303 25.994L233.833 27.184L235.674 24.816ZM253.082 5.124H251.582V6.624H253.082V5.124ZM253.082 2.54V1.04H251.582V2.54H253.082ZM271.578 2.54H273.078V1.04H271.578V2.54ZM271.578 5.124V6.624H273.078V5.124H271.578ZM263.758 5.124V3.624H262.258V5.124H263.758ZM263.758 26V27.5H265.258V26H263.758ZM260.902 26H259.402V27.5H260.902V26ZM260.902 5.124H262.402V3.624H260.902V5.124ZM254.582 5.124V2.54H251.582V5.124H254.582ZM253.082 4.04H271.578V1.04H253.082V4.04ZM270.078 2.54V5.124H273.078V2.54H270.078ZM271.578 3.624H263.758V6.624H271.578V3.624ZM262.258 5.124V26H265.258V5.124H262.258ZM263.758 24.5H260.902V27.5H263.758V24.5ZM262.402 26V5.124H259.402V26H262.402ZM260.902 3.624H253.082V6.624H260.902V3.624ZM276.807 26H275.307V27.5H276.807V26ZM276.807 2.54V1.04H275.307V2.54H276.807ZM292.107 2.54H293.607V1.04H292.107V2.54ZM292.107 5.124V6.624H293.607V5.124H292.107ZM279.663 5.124V3.624H278.163V5.124H279.663ZM279.663 12.4H278.163V13.9H279.663V12.4ZM291.087 12.4H292.587V10.9H291.087V12.4ZM291.087 14.984V16.484H292.587V14.984H291.087ZM279.663 14.984V13.484H278.163V14.984H279.663ZM279.663 23.416H278.163V24.916H279.663V23.416ZM292.107 23.416H293.607V21.916H292.107V23.416ZM292.107 26V27.5H293.607V26H292.107ZM278.307 26V2.54H275.307V26H278.307ZM276.807 4.04H292.107V1.04H276.807V4.04ZM290.607 2.54V5.124H293.607V2.54H290.607ZM292.107 3.624H279.663V6.624H292.107V3.624ZM278.163 5.124V12.4H281.163V5.124H278.163ZM279.663 13.9H291.087V10.9H279.663V13.9ZM289.587 12.4V14.984H292.587V12.4H289.587ZM291.087 13.484H279.663V16.484H291.087V13.484ZM278.163 14.984V23.416H281.163V14.984H278.163ZM279.663 24.916H292.107V21.916H279.663V24.916ZM290.607 23.416V26H293.607V23.416H290.607ZM292.107 24.5H276.807V27.5H292.107V24.5ZM298.222 26H296.722V27.5H298.222V26ZM298.222 2.54V1.04H296.722V2.54H298.222ZM301.996 2.54L303.353 1.90209L302.948 1.04H301.996V2.54ZM309.952 19.472L308.594 20.1099L309.952 22.9992L311.309 20.1099L309.952 19.472ZM317.908 2.54V1.04H316.955L316.55 1.90209L317.908 2.54ZM321.682 2.54H323.182V1.04H321.682V2.54ZM321.682 26V27.5H323.182V26H321.682ZM318.826 26H317.326V27.5H318.826V26ZM318.826 6.824H320.326L317.468 6.18615L318.826 6.824ZM311.414 22.6V24.1H312.366L312.771 23.2379L311.414 22.6ZM308.49 22.6L307.132 23.2379L307.537 24.1H308.49V22.6ZM301.078 6.824L302.436 6.18615L299.578 6.824H301.078ZM301.078 26V27.5H302.578V26H301.078ZM299.722 26V2.54H296.722V26H299.722ZM298.222 4.04H301.996V1.04H298.222V4.04ZM300.638 3.17791L308.594 20.1099L311.309 18.8341L303.353 1.90209L300.638 3.17791ZM311.309 20.1099L319.265 3.17791L316.55 1.90209L308.594 18.8341L311.309 20.1099ZM317.908 4.04H321.682V1.04H317.908V4.04ZM320.182 2.54V26H323.182V2.54H320.182ZM321.682 24.5H318.826V27.5H321.682V24.5ZM320.326 26V6.824H317.326V26H320.326ZM317.468 6.18615L310.056 21.9622L312.771 23.2379L320.184 7.46185L317.468 6.18615ZM311.414 21.1H308.49V24.1H311.414V21.1ZM309.848 21.9622L302.436 6.18615L299.72 7.46185L307.132 23.2379L309.848 21.9622ZM299.578 6.824V26H302.578V6.824H299.578ZM301.078 24.5H298.222V27.5H301.078V24.5ZM326.786 25.388L325.364 24.9099L325.129 25.6076L325.538 26.2201L326.786 25.388ZM334.47 2.54V1.04H333.392L333.048 2.06185L334.47 2.54ZM339.162 2.54L340.584 2.06185L340.24 1.04H339.162V2.54ZM346.846 25.388L348.094 26.22L348.502 25.6076L348.268 24.9099L346.846 25.388ZM346.438 26V27.5H347.241L347.686 26.832L346.438 26ZM344.092 26L342.666 26.467L343.005 27.5H344.092V26ZM342.154 20.084L343.579 19.617L343.241 18.584H342.154V20.084ZM331.478 20.084V18.584H330.391L330.052 19.617L331.478 20.084ZM329.54 26V27.5H330.627L330.965 26.467L329.54 26ZM327.194 26L325.946 26.8321L326.391 27.5H327.194V26ZM332.328 17.5L330.903 17.0304L330.254 19H332.328V17.5ZM341.304 17.5V19H343.378L342.728 17.0304L341.304 17.5ZM337.224 5.124L338.648 4.65436L338.309 3.624H337.224V5.124ZM336.408 5.124V3.624H335.323L334.983 4.65436L336.408 5.124ZM328.208 25.8661L335.892 3.01815L333.048 2.06185L325.364 24.9099L328.208 25.8661ZM334.47 4.04H339.162V1.04H334.47V4.04ZM337.74 3.01815L345.424 25.8661L348.268 24.9099L340.584 2.06185L337.74 3.01815ZM345.598 24.556L345.19 25.168L347.686 26.832L348.094 26.22L345.598 24.556ZM346.438 24.5H344.092V27.5H346.438V24.5ZM345.517 25.533L343.579 19.617L340.728 20.551L342.666 26.467L345.517 25.533ZM342.154 18.584H331.478V21.584H342.154V18.584ZM330.052 19.617L328.114 25.533L330.965 26.467L332.903 20.551L330.052 19.617ZM329.54 24.5H327.194V27.5H329.54V24.5ZM328.442 25.1679L328.034 24.556L325.538 26.2201L325.946 26.8321L328.442 25.1679ZM332.328 19H341.304V16H332.328V19ZM342.728 17.0304L338.648 4.65436L335.799 5.59364L339.879 17.9696L342.728 17.0304ZM337.224 3.624H336.408V6.624H337.224V3.624ZM334.983 4.65436L330.903 17.0304L333.752 17.9696L337.832 5.59364L334.983 4.65436ZM113.06 73H111.56V74.5H113.06V73ZM113.06 49.54V48.04H111.56V49.54H113.06ZM115.916 70.416H114.416V71.916H115.916V70.416ZM115.916 52.124V50.624H114.416V52.124H115.916ZM114.56 73V49.54H111.56V73H114.56ZM113.06 51.04H122.24V48.04H113.06V51.04ZM122.24 51.04C124.842 51.04 126.518 51.6895 127.554 52.7257C128.59 53.7618 129.24 55.4379 129.24 58.04H132.24C132.24 54.9754 131.473 52.4015 129.676 50.6043C127.878 48.8072 125.305 48.04 122.24 48.04V51.04ZM129.24 58.04V64.5H132.24V58.04H129.24ZM129.24 64.5C129.24 67.1021 128.59 68.7782 127.554 69.8143C126.518 70.8505 124.842 71.5 122.24 71.5V74.5C125.305 74.5 127.878 73.7328 129.676 71.9357C131.473 70.1385 132.24 67.5646 132.24 64.5H129.24ZM122.24 71.5H113.06V74.5H122.24V71.5ZM115.916 71.916H122.41V68.916H115.916V71.916ZM122.41 71.916C124.466 71.916 126.283 71.401 127.576 70.1082C128.869 68.8153 129.384 66.9979 129.384 64.942H126.384C126.384 66.5354 125.987 67.455 125.455 67.9868C124.923 68.5187 124.003 68.916 122.41 68.916V71.916ZM129.384 64.942V57.598H126.384V64.942H129.384ZM129.384 57.598C129.384 55.5421 128.869 53.7247 127.576 52.4318C126.283 51.139 124.466 50.624 122.41 50.624V53.624C124.003 53.624 124.923 54.0213 125.455 54.5532C125.987 55.085 126.384 56.0046 126.384 57.598H129.384ZM122.41 50.624H115.916V53.624H122.41V50.624ZM114.416 52.124V70.416H117.416V52.124H114.416ZM138.549 73H137.049V74.5H138.549V73ZM138.549 49.54V48.04H137.049V49.54H138.549ZM153.849 49.54H155.349V48.04H153.849V49.54ZM153.849 52.124V53.624H155.349V52.124H153.849ZM141.405 52.124V50.624H139.905V52.124H141.405ZM141.405 59.4H139.905V60.9H141.405V59.4ZM152.829 59.4H154.329V57.9H152.829V59.4ZM152.829 61.984V63.484H154.329V61.984H152.829ZM141.405 61.984V60.484H139.905V61.984H141.405ZM141.405 70.416H139.905V71.916H141.405V70.416ZM153.849 70.416H155.349V68.916H153.849V70.416ZM153.849 73V74.5H155.349V73H153.849ZM140.049 73V49.54H137.049V73H140.049ZM138.549 51.04H153.849V48.04H138.549V51.04ZM152.349 49.54V52.124H155.349V49.54H152.349ZM153.849 50.624H141.405V53.624H153.849V50.624ZM139.905 52.124V59.4H142.905V52.124H139.905ZM141.405 60.9H152.829V57.9H141.405V60.9ZM151.329 59.4V61.984H154.329V59.4H151.329ZM152.829 60.484H141.405V63.484H152.829V60.484ZM139.905 61.984V70.416H142.905V61.984H139.905ZM141.405 71.916H153.849V68.916H141.405V71.916ZM152.349 70.416V73H155.349V70.416H152.349ZM153.849 71.5H138.549V74.5H153.849V71.5ZM171.532 73H170.032V74.5H171.532V73ZM171.532 49.54V48.04H170.032V49.54H171.532ZM174.388 49.54H175.888V48.04H174.388V49.54ZM174.388 73V74.5H175.888V73H174.388ZM173.032 73V49.54H170.032V73H173.032ZM171.532 51.04H174.388V48.04H171.532V51.04ZM172.888 49.54V73H175.888V49.54H172.888ZM174.388 71.5H171.532V74.5H174.388V71.5ZM182.877 73H181.377V74.5H182.877V73ZM182.877 49.54V48.04H181.377V49.54H182.877ZM186.039 49.54L187.298 48.7241L186.854 48.04H186.039V49.54ZM198.381 68.58L197.122 69.3959L199.881 73.6517V68.58H198.381ZM198.381 49.54V48.04H196.881V49.54H198.381ZM201.237 49.54H202.737V48.04H201.237V49.54ZM201.237 73V74.5H202.737V73H201.237ZM198.075 73L196.816 73.8159L197.26 74.5H198.075V73ZM185.733 53.96L186.992 53.1441L184.233 48.8883V53.96H185.733ZM185.733 73V74.5H187.233V73H185.733ZM184.377 73V49.54H181.377V73H184.377ZM182.877 51.04H186.039V48.04H182.877V51.04ZM184.78 50.3559L197.122 69.3959L199.64 67.7641L187.298 48.7241L184.78 50.3559ZM199.881 68.58V49.54H196.881V68.58H199.881ZM198.381 51.04H201.237V48.04H198.381V51.04ZM199.737 49.54V73H202.737V49.54H199.737ZM201.237 71.5H198.075V74.5H201.237V71.5ZM199.334 72.1841L186.992 53.1441L184.474 54.7759L196.816 73.8159L199.334 72.1841ZM184.233 53.96V73H187.233V53.96H184.233ZM185.733 71.5H182.877V74.5H185.733V71.5ZM210.888 67.798V54.742H207.888V67.798H210.888ZM210.888 54.742C210.888 53.2392 211.262 52.3876 211.749 51.9012C212.235 51.4147 213.087 51.04 214.59 51.04V48.04C212.624 48.04 210.875 48.5323 209.627 49.7798C208.38 51.0274 207.888 52.7768 207.888 54.742H210.888ZM214.59 51.04H222.546V48.04H214.59V51.04ZM222.546 51.04C224.048 51.04 224.9 51.4147 225.386 51.9012C225.873 52.3876 226.248 53.2392 226.248 54.742H229.248C229.248 52.7768 228.755 51.0274 227.508 49.7798C226.26 48.5323 224.511 48.04 222.546 48.04V51.04ZM226.248 54.742V67.798H229.248V54.742H226.248ZM226.248 67.798C226.248 69.3008 225.873 70.1524 225.386 70.6388C224.9 71.1253 224.048 71.5 222.546 71.5V74.5C224.511 74.5 226.26 74.0077 227.508 72.7602C228.755 71.5126 229.248 69.7632 229.248 67.798H226.248ZM222.546 71.5H214.59V74.5H222.546V71.5ZM214.59 71.5C213.087 71.5 212.235 71.1253 211.749 70.6388C211.262 70.1524 210.888 69.3008 210.888 67.798H207.888C207.888 69.7632 208.38 71.5126 209.627 72.7602C210.875 74.0077 212.624 74.5 214.59 74.5V71.5ZM210.744 68.104C210.744 69.1059 210.995 70.1328 211.761 70.8987C212.527 71.6645 213.554 71.916 214.556 71.916V68.916C214.016 68.916 213.887 68.7822 213.882 68.7773C213.877 68.7725 213.744 68.6434 213.744 68.104H210.744ZM214.556 71.916H222.58V68.916H214.556V71.916ZM222.58 71.916C223.581 71.916 224.608 71.6645 225.374 70.8987C226.14 70.1328 226.392 69.1059 226.392 68.104H223.392C223.392 68.6434 223.258 68.7725 223.253 68.7773C223.248 68.7822 223.119 68.916 222.58 68.916V71.916ZM226.392 68.104V54.436H223.392V68.104H226.392ZM226.392 54.436C226.392 53.4341 226.14 52.4072 225.374 51.6413C224.608 50.8755 223.581 50.624 222.58 50.624V53.624C223.119 53.624 223.248 53.7578 223.253 53.7627C223.258 53.7675 223.392 53.8965 223.392 54.436H226.392ZM222.58 50.624H214.556V53.624H222.58V50.624ZM214.556 50.624C213.554 50.624 212.527 50.8755 211.761 51.6413C210.995 52.4072 210.744 53.4341 210.744 54.436H213.744C213.744 53.8965 213.877 53.7675 213.882 53.7627C213.887 53.7578 214.016 53.624 214.556 53.624V50.624ZM210.744 54.436V68.104H213.744V54.436H210.744ZM233.534 50.152L232.286 49.3199L231.883 49.9241L232.107 50.6149L233.534 50.152ZM233.942 49.54V48.04H233.139L232.694 48.7079L233.942 49.54ZM236.356 49.54L237.786 49.086L237.454 48.04H236.356V49.54ZM242.986 70.416L241.557 70.87L241.889 71.916H242.986V70.416ZM243.802 70.416V71.916H244.9L245.232 70.87L243.802 70.416ZM250.432 49.54V48.04H249.335L249.003 49.086L250.432 49.54ZM252.846 49.54L254.094 48.7079L253.649 48.04H252.846V49.54ZM253.254 50.152L254.681 50.6149L254.905 49.9241L254.502 49.3199L253.254 50.152ZM245.842 73V74.5H246.933L247.269 73.4629L245.842 73ZM240.946 73L239.519 73.4629L239.856 74.5H240.946V73ZM234.782 50.984L235.19 50.372L232.694 48.7079L232.286 49.3199L234.782 50.984ZM233.942 51.04H236.356V48.04H233.942V51.04ZM234.927 49.994L241.557 70.87L244.416 69.962L237.786 49.086L234.927 49.994ZM242.986 71.916H243.802V68.916H242.986V71.916ZM245.232 70.87L251.862 49.994L249.003 49.086L242.373 69.962L245.232 70.87ZM250.432 51.04H252.846V48.04H250.432V51.04ZM251.598 50.372L252.006 50.9841L254.502 49.3199L254.094 48.7079L251.598 50.372ZM251.827 49.6891L244.415 72.5371L247.269 73.4629L254.681 50.6149L251.827 49.6891ZM245.842 71.5H240.946V74.5H245.842V71.5ZM242.373 72.5371L234.961 49.6891L232.107 50.6149L239.519 73.4629L242.373 72.5371ZM255.637 72.388L254.215 71.9099L253.98 72.6076L254.389 73.22L255.637 72.388ZM263.321 49.54V48.04H262.243L261.899 49.0619L263.321 49.54ZM268.013 49.54L269.435 49.0619L269.091 48.04H268.013V49.54ZM275.697 72.388L276.945 73.22L277.353 72.6076L277.119 71.9099L275.697 72.388ZM275.289 73V74.5H276.092L276.537 73.832L275.289 73ZM272.943 73L271.517 73.467L271.856 74.5H272.943V73ZM271.005 67.084L272.43 66.617L272.092 65.584H271.005V67.084ZM260.329 67.084V65.584H259.242L258.903 66.617L260.329 67.084ZM258.391 73V74.5H259.478L259.816 73.467L258.391 73ZM256.045 73L254.797 73.832L255.242 74.5H256.045V73ZM261.179 64.5L259.754 64.0304L259.105 66H261.179V64.5ZM270.155 64.5V66H272.229L271.579 64.0304L270.155 64.5ZM266.075 52.124L267.499 51.6544L267.16 50.624H266.075V52.124ZM265.259 52.124V50.624H264.174L263.834 51.6544L265.259 52.124ZM257.059 72.8661L264.743 50.0181L261.899 49.0619L254.215 71.9099L257.059 72.8661ZM263.321 51.04H268.013V48.04H263.321V51.04ZM266.591 50.0181L274.275 72.8661L277.119 71.9099L269.435 49.0619L266.591 50.0181ZM274.449 71.556L274.041 72.168L276.537 73.832L276.945 73.22L274.449 71.556ZM275.289 71.5H272.943V74.5H275.289V71.5ZM274.368 72.533L272.43 66.617L269.579 67.551L271.517 73.467L274.368 72.533ZM271.005 65.584H260.329V68.584H271.005V65.584ZM258.903 66.617L256.965 72.533L259.816 73.467L261.754 67.551L258.903 66.617ZM258.391 71.5H256.045V74.5H258.391V71.5ZM257.293 72.168L256.885 71.5559L254.389 73.22L254.797 73.832L257.293 72.168ZM261.179 66H270.155V63H261.179V66ZM271.579 64.0304L267.499 51.6544L264.65 52.5936L268.73 64.9696L271.579 64.0304ZM266.075 50.624H265.259V53.624H266.075V50.624ZM263.834 51.6544L259.754 64.0304L262.603 64.9696L266.683 52.5936L263.834 51.6544ZM296.263 49.54L297.184 48.356L296.778 48.04H296.263V49.54ZM297.793 50.73H299.293V49.9964L298.714 49.546L297.793 50.73ZM297.793 52.124V53.624H299.293V52.124H297.793ZM297.793 70.416H299.293V68.916H297.793V70.416ZM297.793 71.81L298.714 72.994L299.293 72.5436V71.81H297.793ZM296.263 73V74.5H296.778L297.184 74.184L296.263 73ZM286.573 77.148V75.648H285.073V77.148H286.573ZM291.061 71.81V70.31H289.561V71.81H291.061ZM293.237 71.81H294.737V70.31H293.237V71.81ZM287.661 79.12L286.737 80.302L287.144 80.62H287.661V79.12ZM286.573 78.27H285.073V79.0016L285.649 79.452L286.573 78.27ZM282.973 67.798V54.742H279.973V67.798H282.973ZM282.973 54.742C282.973 53.2392 283.348 52.3876 283.834 51.9012C284.321 51.4147 285.172 51.04 286.675 51.04V48.04C284.71 48.04 282.96 48.5323 281.713 49.7798C280.465 51.0274 279.973 52.7768 279.973 54.742H282.973ZM286.675 51.04H296.263V48.04H286.675V51.04ZM295.342 50.724L296.872 51.914L298.714 49.546L297.184 48.356L295.342 50.724ZM296.293 50.73V52.124H299.293V50.73H296.293ZM297.793 50.624H286.641V53.624H297.793V50.624ZM286.641 50.624C285.639 50.624 284.612 50.8755 283.846 51.6413C283.08 52.4072 282.829 53.4341 282.829 54.436H285.829C285.829 53.8965 285.963 53.7675 285.968 53.7627C285.972 53.7578 286.101 53.624 286.641 53.624V50.624ZM282.829 54.436V68.104H285.829V54.436H282.829ZM282.829 68.104C282.829 69.1059 283.08 70.1328 283.846 70.8987C284.612 71.6645 285.639 71.916 286.641 71.916V68.916C286.101 68.916 285.972 68.7822 285.968 68.7773C285.963 68.7725 285.829 68.6434 285.829 68.104H282.829ZM286.641 71.916H297.793V68.916H286.641V71.916ZM296.293 70.416V71.81H299.293V70.416H296.293ZM296.872 70.626L295.342 71.816L297.184 74.184L298.714 72.994L296.872 70.626ZM296.263 71.5H286.675V74.5H296.263V71.5ZM286.675 71.5C285.172 71.5 284.321 71.1253 283.834 70.6388C283.348 70.1524 282.973 69.3008 282.973 67.798H279.973C279.973 69.7632 280.465 71.5126 281.713 72.7602C282.96 74.0077 284.71 74.5 286.675 74.5V71.5ZM286.573 78.648H289.973V75.648H286.573V78.648ZM289.973 78.648C290.567 78.648 291.288 78.4985 291.85 77.9367C292.411 77.3748 292.561 76.6539 292.561 76.06H289.561C289.561 76.1915 289.529 76.0145 289.728 75.8153C289.927 75.6162 290.104 75.648 289.973 75.648V78.648ZM292.561 76.06V71.81H289.561V76.06H292.561ZM291.061 73.31H293.237V70.31H291.061V73.31ZM291.737 71.81V75.72H294.737V71.81H291.737ZM291.737 75.72C291.737 76.6221 291.512 77.0232 291.326 77.2093C291.14 77.3955 290.739 77.62 289.837 77.62V80.62C291.201 80.62 292.5 80.2778 293.448 79.3307C294.395 78.3835 294.737 77.0845 294.737 75.72H291.737ZM289.837 77.62H287.661V80.62H289.837V77.62ZM288.584 77.938L287.496 77.088L285.649 79.452L286.737 80.302L288.584 77.938ZM288.073 78.27V77.148H285.073V78.27H288.073ZM302.565 72.388L301.143 71.9099L300.908 72.6076L301.317 73.22L302.565 72.388ZM310.249 49.54V48.04H309.171L308.827 49.0619L310.249 49.54ZM314.941 49.54L316.363 49.0619L316.019 48.04H314.941V49.54ZM322.625 72.388L323.873 73.22L324.281 72.6076L324.047 71.9099L322.625 72.388ZM322.217 73V74.5H323.02L323.465 73.832L322.217 73ZM319.871 73L318.445 73.467L318.784 74.5H319.871V73ZM317.933 67.084L319.358 66.617L319.02 65.584H317.933V67.084ZM307.257 67.084V65.584H306.17L305.831 66.617L307.257 67.084ZM305.319 73V74.5H306.406L306.744 73.467L305.319 73ZM302.973 73L301.725 73.832L302.17 74.5H302.973V73ZM308.107 64.5L306.682 64.0304L306.033 66H308.107V64.5ZM317.083 64.5V66H319.157L318.507 64.0304L317.083 64.5ZM313.003 52.124L314.427 51.6544L314.088 50.624H313.003V52.124ZM312.187 52.124V50.624H311.102L310.762 51.6544L312.187 52.124ZM307.325 45.868L306.264 44.8073L305.204 45.868L306.264 46.9287L307.325 45.868ZM309.161 44.032L308.1 42.9713L309.161 44.032ZM312.629 44.032L313.689 42.9713L312.629 44.032ZM313.717 45.12L314.778 44.0593L314.777 44.0593L313.717 45.12ZM314.873 45.12L313.812 44.0593L314.873 45.12ZM316.539 43.454L317.6 42.3933L316.539 41.3327L315.478 42.3933L316.539 43.454ZM317.865 44.78L318.926 45.8407L319.986 44.78L318.926 43.7193L317.865 44.78ZM316.029 46.616L314.968 45.5553L316.029 46.616ZM311.473 45.528L310.412 46.5887L311.473 45.528ZM310.317 45.528L311.378 46.5887V46.5887L310.317 45.528ZM308.651 47.194L307.59 48.2547L308.651 49.3153L309.712 48.2547L308.651 47.194ZM303.987 72.8661L311.671 50.0181L308.827 49.0619L301.143 71.9099L303.987 72.8661ZM310.249 51.04H314.941V48.04H310.249V51.04ZM313.519 50.0181L321.203 72.8661L324.047 71.9099L316.363 49.0619L313.519 50.0181ZM321.377 71.556L320.969 72.168L323.465 73.832L323.873 73.22L321.377 71.556ZM322.217 71.5H319.871V74.5H322.217V71.5ZM321.296 72.533L319.358 66.617L316.507 67.551L318.445 73.467L321.296 72.533ZM317.933 65.584H307.257V68.584H317.933V65.584ZM305.831 66.617L303.893 72.533L306.744 73.467L308.682 67.551L305.831 66.617ZM305.319 71.5H302.973V74.5H305.319V71.5ZM304.221 72.168L303.813 71.5559L301.317 73.22L301.725 73.832L304.221 72.168ZM308.107 66H317.083V63H308.107V66ZM318.507 64.0304L314.427 51.6544L311.578 52.5936L315.658 64.9696L318.507 64.0304ZM313.003 50.624H312.187V53.624H313.003V50.624ZM310.762 51.6544L306.682 64.0304L309.531 64.9696L313.611 52.5936L310.762 51.6544ZM308.385 46.9287L310.221 45.0927L308.1 42.9713L306.264 44.8073L308.385 46.9287ZM310.221 45.0927C310.462 44.8526 310.666 44.784 310.895 44.784V41.784C309.809 41.784 308.857 42.214 308.1 42.9713L310.221 45.0927ZM310.895 44.784C311.123 44.784 311.328 44.8526 311.568 45.0927L313.689 42.9713C312.932 42.214 311.981 41.784 310.895 41.784V44.784ZM311.568 45.0927L312.656 46.1807L314.777 44.0593L313.689 42.9713L311.568 45.0927ZM312.656 46.1807C313.043 46.5671 313.597 46.892 314.295 46.892V43.892C314.423 43.892 314.542 43.9223 314.636 43.9668C314.725 44.0085 314.77 44.0518 314.778 44.0593L312.656 46.1807ZM314.295 46.892C314.993 46.892 315.547 46.5671 315.934 46.1807L313.812 44.0593C313.82 44.0518 313.865 44.0085 313.954 43.9668C314.048 43.9223 314.166 43.892 314.295 43.892V46.892ZM315.934 46.1807L317.6 44.5147L315.478 42.3933L313.812 44.0593L315.934 46.1807ZM315.478 44.5147L316.804 45.8407L318.926 43.7193L317.6 42.3933L315.478 44.5147ZM316.804 43.7193L314.968 45.5553L317.09 47.6767L318.926 45.8407L316.804 43.7193ZM314.968 45.5553C314.728 45.7954 314.523 45.864 314.295 45.864V48.864C315.381 48.864 316.332 48.434 317.09 47.6767L314.968 45.5553ZM314.295 45.864C314.066 45.864 313.862 45.7954 313.622 45.5553L311.5 47.6767C312.257 48.434 313.209 48.864 314.295 48.864V45.864ZM313.622 45.5553L312.534 44.4673L310.412 46.5887L311.5 47.6767L313.622 45.5553ZM312.534 44.4673C312.147 44.0809 311.593 43.756 310.895 43.756V46.756C310.766 46.756 310.648 46.7257 310.554 46.6812C310.465 46.6395 310.42 46.5962 310.412 46.5887L312.534 44.4673ZM310.895 43.756C310.197 43.756 309.643 44.0809 309.256 44.4673L311.378 46.5887C311.37 46.5962 311.325 46.6395 311.236 46.6812C311.142 46.7257 311.023 46.756 310.895 46.756V43.756ZM309.256 44.4673L307.59 46.1333L309.712 48.2547L311.378 46.5887L309.256 44.4673ZM309.712 46.1333L308.385 44.8073L306.264 46.9287L307.59 48.2547L309.712 46.1333ZM329.901 67.798V54.742H326.901V67.798H329.901ZM329.901 54.742C329.901 53.2392 330.276 52.3876 330.762 51.9012C331.249 51.4147 332.1 51.04 333.603 51.04V48.04C331.638 48.04 329.888 48.5323 328.641 49.7798C327.393 51.0274 326.901 52.7768 326.901 54.742H329.901ZM333.603 51.04H341.559V48.04H333.603V51.04ZM341.559 51.04C343.062 51.04 343.913 51.4147 344.4 51.9012C344.886 52.3876 345.261 53.2392 345.261 54.742H348.261C348.261 52.7768 347.769 51.0274 346.521 49.7798C345.273 48.5323 343.524 48.04 341.559 48.04V51.04ZM345.261 54.742V67.798H348.261V54.742H345.261ZM345.261 67.798C345.261 69.3008 344.886 70.1524 344.4 70.6388C343.913 71.1253 343.062 71.5 341.559 71.5V74.5C343.524 74.5 345.273 74.0077 346.521 72.7602C347.769 71.5126 348.261 69.7632 348.261 67.798H345.261ZM341.559 71.5H333.603V74.5H341.559V71.5ZM333.603 71.5C332.1 71.5 331.249 71.1253 330.762 70.6388C330.276 70.1524 329.901 69.3008 329.901 67.798H326.901C326.901 69.7632 327.393 71.5126 328.641 72.7602C329.888 74.0077 331.638 74.5 333.603 74.5V71.5ZM329.757 68.104C329.757 69.1059 330.008 70.1328 330.774 70.8987C331.54 71.6645 332.567 71.916 333.569 71.916V68.916C333.029 68.916 332.9 68.7822 332.896 68.7773C332.891 68.7725 332.757 68.6434 332.757 68.104H329.757ZM333.569 71.916H341.593V68.916H333.569V71.916ZM341.593 71.916C342.595 71.916 343.622 71.6645 344.388 70.8987C345.153 70.1328 345.405 69.1059 345.405 68.104H342.405C342.405 68.6434 342.271 68.7725 342.266 68.7773C342.261 68.7822 342.132 68.916 341.593 68.916V71.916ZM345.405 68.104V54.436H342.405V68.104H345.405ZM345.405 54.436C345.405 53.4341 345.153 52.4072 344.388 51.6413C343.622 50.8755 342.595 50.624 341.593 50.624V53.624C342.132 53.624 342.261 53.7578 342.266 53.7627C342.271 53.7675 342.405 53.8965 342.405 54.436H345.405ZM341.593 50.624H333.569V53.624H341.593V50.624ZM333.569 50.624C332.567 50.624 331.54 50.8755 330.774 51.6413C330.008 52.4072 329.757 53.4341 329.757 54.436H332.757C332.757 53.8965 332.891 53.7675 332.896 53.7627C332.9 53.7578 333.029 53.624 333.569 53.624V50.624ZM329.757 54.436V68.104H332.757V54.436H329.757ZM127.51 96.54L128.431 95.356L128.025 95.04H127.51V96.54ZM129.04 97.73H130.54V96.9964L129.961 96.546L129.04 97.73ZM129.04 99.124V100.624H130.54V99.124H129.04ZM129.04 117.416H130.54V115.916H129.04V117.416ZM129.04 118.81L129.961 119.994L130.54 119.544V118.81H129.04ZM127.51 120V121.5H128.025L128.431 121.184L127.51 120ZM114.22 114.798V101.742H111.22V114.798H114.22ZM114.22 101.742C114.22 100.239 114.595 99.3876 115.081 98.9012C115.568 98.4147 116.419 98.04 117.922 98.04V95.04C115.957 95.04 114.207 95.5323 112.96 96.7798C111.712 98.0274 111.22 99.7768 111.22 101.742H114.22ZM117.922 98.04H127.51V95.04H117.922V98.04ZM126.589 97.724L128.119 98.914L129.961 96.546L128.431 95.356L126.589 97.724ZM127.54 97.73V99.124H130.54V97.73H127.54ZM129.04 97.624H117.888V100.624H129.04V97.624ZM117.888 97.624C116.886 97.624 115.859 97.8755 115.093 98.6413C114.327 99.4072 114.076 100.434 114.076 101.436H117.076C117.076 100.897 117.21 100.767 117.215 100.763C117.219 100.758 117.349 100.624 117.888 100.624V97.624ZM114.076 101.436V115.104H117.076V101.436H114.076ZM114.076 115.104C114.076 116.106 114.327 117.133 115.093 117.899C115.859 118.665 116.886 118.916 117.888 118.916V115.916C117.349 115.916 117.219 115.782 117.215 115.777C117.21 115.773 117.076 115.643 117.076 115.104H114.076ZM117.888 118.916H129.04V115.916H117.888V118.916ZM127.54 117.416V118.81H130.54V117.416H127.54ZM128.119 117.626L126.589 118.816L128.431 121.184L129.961 119.994L128.119 117.626ZM127.51 118.5H117.922V121.5H127.51V118.5ZM117.922 118.5C116.419 118.5 115.568 118.125 115.081 117.639C114.595 117.152 114.22 116.301 114.22 114.798H111.22C111.22 116.763 111.712 118.513 112.96 119.76C114.207 121.008 115.957 121.5 117.922 121.5V118.5ZM143.332 120H141.832V121.5H143.332V120ZM143.332 96.54V95.04H141.832V96.54H143.332ZM158.632 96.54H160.132V95.04H158.632V96.54ZM158.632 99.124V100.624H160.132V99.124H158.632ZM146.188 99.124V97.624H144.688V99.124H146.188ZM146.188 106.4H144.688V107.9H146.188V106.4ZM157.612 106.4H159.112V104.9H157.612V106.4ZM157.612 108.984V110.484H159.112V108.984H157.612ZM146.188 108.984V107.484H144.688V108.984H146.188ZM146.188 117.416H144.688V118.916H146.188V117.416ZM158.632 117.416H160.132V115.916H158.632V117.416ZM158.632 120V121.5H160.132V120H158.632ZM144.832 120V96.54H141.832V120H144.832ZM143.332 98.04H158.632V95.04H143.332V98.04ZM157.132 96.54V99.124H160.132V96.54H157.132ZM158.632 97.624H146.188V100.624H158.632V97.624ZM144.688 99.124V106.4H147.688V99.124H144.688ZM146.188 107.9H157.612V104.9H146.188V107.9ZM156.112 106.4V108.984H159.112V106.4H156.112ZM157.612 107.484H146.188V110.484H157.612V107.484ZM144.688 108.984V117.416H147.688V108.984H144.688ZM146.188 118.916H158.632V115.916H146.188V118.916ZM157.132 117.416V120H160.132V117.416H157.132ZM158.632 118.5H143.332V121.5H158.632V118.5ZM170.527 119.388L169.105 118.91L168.87 119.608L169.279 120.22L170.527 119.388ZM178.211 96.54V95.04H177.133L176.789 96.0619L178.211 96.54ZM182.903 96.54L184.324 96.0619L183.981 95.04H182.903V96.54ZM190.587 119.388L191.835 120.22L192.243 119.608L192.008 118.91L190.587 119.388ZM190.179 120V121.5H190.981L191.427 120.832L190.179 120ZM187.833 120L186.407 120.467L186.746 121.5H187.833V120ZM185.895 114.084L187.32 113.617L186.982 112.584H185.895V114.084ZM175.219 114.084V112.584H174.132L173.793 113.617L175.219 114.084ZM173.281 120V121.5H174.368L174.706 120.467L173.281 120ZM170.935 120L169.687 120.832L170.132 121.5H170.935V120ZM176.069 111.5L174.644 111.03L173.995 113H176.069V111.5ZM185.045 111.5V113H187.119L186.469 111.03L185.045 111.5ZM180.965 99.124L182.389 98.6544L182.05 97.624H180.965V99.124ZM180.149 99.124V97.624H179.064L178.724 98.6544L180.149 99.124ZM171.948 119.866L179.632 97.0181L176.789 96.0619L169.105 118.91L171.948 119.866ZM178.211 98.04H182.903V95.04H178.211V98.04ZM181.481 97.0181L189.165 119.866L192.008 118.91L184.324 96.0619L181.481 97.0181ZM189.339 118.556L188.931 119.168L191.427 120.832L191.835 120.22L189.339 118.556ZM190.179 118.5H187.833V121.5H190.179V118.5ZM189.258 119.533L187.32 113.617L184.469 114.551L186.407 120.467L189.258 119.533ZM185.895 112.584H175.219V115.584H185.895V112.584ZM173.793 113.617L171.855 119.533L174.706 120.467L176.644 114.551L173.793 113.617ZM173.281 118.5H170.935V121.5H173.281V118.5ZM172.183 119.168L171.775 118.556L169.279 120.22L169.687 120.832L172.183 119.168ZM176.069 113H185.045V110H176.069V113ZM186.469 111.03L182.389 98.6544L179.54 99.5936L183.62 111.97L186.469 111.03ZM180.965 97.624H180.149V100.624H180.965V97.624ZM178.724 98.6544L174.644 111.03L177.493 111.97L181.573 99.5936L178.724 98.6544ZM203.843 120H202.343V121.5H203.843V120ZM203.843 96.54V95.04H202.343V96.54H203.843ZM216.389 110.582L216.123 109.106L214.135 109.464L215.052 111.263L216.389 110.582ZM220.843 119.32L222.157 120.043L222.54 119.347L222.179 118.639L220.843 119.32ZM220.469 120V121.5H221.356L221.783 120.723L220.469 120ZM218.055 120L216.717 120.679L217.134 121.5H218.055V120ZM213.329 110.684L214.666 110.005L214.25 109.184H213.329V110.684ZM206.699 110.684V109.184H205.199V110.684H206.699ZM206.699 120V121.5H208.199V120H206.699ZM206.699 108.1H205.199V109.6H206.699V108.1ZM206.699 99.124V97.624H205.199V99.124H206.699ZM205.343 120V96.54H202.343V120H205.343ZM203.843 98.04H214.961V95.04H203.843V98.04ZM214.961 98.04C216.463 98.04 217.315 98.4147 217.801 98.9012C218.288 99.3876 218.663 100.239 218.663 101.742H221.663C221.663 99.7768 221.17 98.0274 219.923 96.7798C218.675 95.5323 216.926 95.04 214.961 95.04V98.04ZM218.663 101.742V105.482H221.663V101.742H218.663ZM218.663 105.482C218.663 106.757 218.389 107.567 218.013 108.075C217.658 108.556 217.088 108.932 216.123 109.106L216.655 112.058C218.206 111.779 219.523 111.078 220.425 109.859C221.307 108.667 221.663 107.153 221.663 105.482H218.663ZM215.052 111.263L219.506 120.001L222.179 118.639L217.725 109.901L215.052 111.263ZM219.528 118.597L219.154 119.277L221.783 120.723L222.157 120.043L219.528 118.597ZM220.469 118.5H218.055V121.5H220.469V118.5ZM219.392 119.321L214.666 110.005L211.991 111.363L216.717 120.679L219.392 119.321ZM213.329 109.184H206.699V112.184H213.329V109.184ZM205.199 110.684V120H208.199V110.684H205.199ZM206.699 118.5H203.843V121.5H206.699V118.5ZM206.699 109.6H214.995V106.6H206.699V109.6ZM214.995 109.6C215.997 109.6 217.023 109.349 217.789 108.583C218.555 107.817 218.807 106.79 218.807 105.788H215.807C215.807 106.327 215.673 106.457 215.668 106.461C215.663 106.466 215.534 106.6 214.995 106.6V109.6ZM218.807 105.788V101.436H215.807V105.788H218.807ZM218.807 101.436C218.807 100.434 218.555 99.4072 217.789 98.6413C217.023 97.8755 215.997 97.624 214.995 97.624V100.624C215.534 100.624 215.663 100.758 215.668 100.763C215.673 100.767 215.807 100.897 215.807 101.436H218.807ZM214.995 97.624H206.699V100.624H214.995V97.624ZM205.199 99.124V108.1H208.199V99.124H205.199ZM235.111 120H233.611V121.5H235.111V120ZM235.111 96.54V95.04H233.611V96.54H235.111ZM250.411 96.54H251.911V95.04H250.411V96.54ZM250.411 99.124V100.624H251.911V99.124H250.411ZM237.967 99.124V97.624H236.467V99.124H237.967ZM237.967 106.4H236.467V107.9H237.967V106.4ZM249.391 106.4H250.891V104.9H249.391V106.4ZM249.391 108.984V110.484H250.891V108.984H249.391ZM237.967 108.984V107.484H236.467V108.984H237.967ZM237.967 117.416H236.467V118.916H237.967V117.416ZM250.411 117.416H251.911V115.916H250.411V117.416ZM250.411 120V121.5H251.911V120H250.411ZM236.611 120V96.54H233.611V120H236.611ZM235.111 98.04H250.411V95.04H235.111V98.04ZM248.911 96.54V99.124H251.911V96.54H248.911ZM250.411 97.624H237.967V100.624H250.411V97.624ZM236.467 99.124V106.4H239.467V99.124H236.467ZM237.967 107.9H249.391V104.9H237.967V107.9ZM247.891 106.4V108.984H250.891V106.4H247.891ZM249.391 107.484H237.967V110.484H249.391V107.484ZM236.467 108.984V117.416H239.467V108.984H236.467ZM237.967 118.916H250.411V115.916H237.967V118.916ZM248.911 117.416V120H251.911V117.416H248.911ZM250.411 118.5H235.111V121.5H250.411V118.5ZM264.685 120H263.185V121.5H264.685V120ZM264.685 96.54V95.04H263.185V96.54H264.685ZM267.847 96.54L269.106 95.7241L268.663 95.04H267.847V96.54ZM280.189 115.58L278.931 116.396L281.689 120.652V115.58H280.189ZM280.189 96.54V95.04H278.689V96.54H280.189ZM283.045 96.54H284.545V95.04H283.045V96.54ZM283.045 120V121.5H284.545V120H283.045ZM279.883 120L278.625 120.816L279.068 121.5H279.883V120ZM267.541 100.96L268.8 100.144L266.041 95.8883V100.96H267.541ZM267.541 120V121.5H269.041V120H267.541ZM266.185 120V96.54H263.185V120H266.185ZM264.685 98.04H267.847V95.04H264.685V98.04ZM266.589 97.3559L278.931 116.396L281.448 114.764L269.106 95.7241L266.589 97.3559ZM281.689 115.58V96.54H278.689V115.58H281.689ZM280.189 98.04H283.045V95.04H280.189V98.04ZM281.545 96.54V120H284.545V96.54H281.545ZM283.045 118.5H279.883V121.5H283.045V118.5ZM281.142 119.184L268.8 100.144L266.283 101.776L278.625 120.816L281.142 119.184ZM266.041 100.96V120H269.041V100.96H266.041ZM267.541 118.5H264.685V121.5H267.541V118.5ZM297.656 118.81H296.156V119.544L296.735 119.994L297.656 118.81ZM297.656 117.416V115.916H296.156V117.416H297.656ZM308.706 110.038L308.412 111.509L308.417 111.51L308.706 110.038ZM301.396 108.576L301.69 107.105L301.396 108.576ZM311.086 96.54L312.007 95.356L311.601 95.04H311.086V96.54ZM312.616 97.73H314.116V96.9964L313.537 96.546L312.616 97.73ZM312.616 99.124V100.624H314.116V99.124H312.616ZM302.246 106.026L302.54 104.555L302.535 104.554L302.246 106.026ZM309.556 107.488L309.85 106.017L309.556 107.488ZM299.186 120L298.265 121.184L298.671 121.5H299.186V120ZM299.156 118.81V117.416H296.156V118.81H299.156ZM297.656 118.916H308.128V115.916H297.656V118.916ZM308.128 118.916C309.13 118.916 310.157 118.665 310.923 117.899C311.689 117.133 311.94 116.106 311.94 115.104H308.94C308.94 115.643 308.806 115.773 308.801 115.777C308.797 115.782 308.668 115.916 308.128 115.916V118.916ZM311.94 115.104V112.316H308.94V115.104H311.94ZM311.94 112.316C311.94 111.457 311.748 110.588 311.2 109.869C310.64 109.133 309.845 108.733 308.995 108.566L308.417 111.51C308.723 111.57 308.795 111.663 308.813 111.686C308.843 111.726 308.94 111.883 308.94 112.316H311.94ZM309 108.567L301.69 107.105L301.102 110.047L308.412 111.509L309 108.567ZM301.69 107.105C300.725 106.912 300.151 106.528 299.795 106.049C299.423 105.549 299.156 104.766 299.156 103.544H296.156C296.156 105.178 296.512 106.662 297.387 107.839C298.278 109.037 299.574 109.741 301.102 110.047L301.69 107.105ZM299.156 103.544V101.742H296.156V103.544H299.156ZM299.156 101.742C299.156 100.239 299.531 99.3876 300.017 98.9012C300.504 98.4147 301.355 98.04 302.858 98.04V95.04C300.893 95.04 299.143 95.5323 297.896 96.7798C296.648 98.0274 296.156 99.7768 296.156 101.742H299.156ZM302.858 98.04H311.086V95.04H302.858V98.04ZM310.165 97.724L311.695 98.914L313.537 96.546L312.007 95.356L310.165 97.724ZM311.116 97.73V99.124H314.116V97.73H311.116ZM312.616 97.624H302.824V100.624H312.616V97.624ZM302.824 97.624C301.822 97.624 300.795 97.8755 300.029 98.6413C299.264 99.4072 299.012 100.434 299.012 101.436H302.012C302.012 100.897 302.146 100.767 302.151 100.763C302.156 100.758 302.285 100.624 302.824 100.624V97.624ZM299.012 101.436V103.748H302.012V101.436H299.012ZM299.012 103.748C299.012 104.607 299.204 105.476 299.752 106.195C300.312 106.931 301.107 107.331 301.957 107.498L302.535 104.554C302.229 104.494 302.157 104.401 302.139 104.378C302.109 104.338 302.012 104.181 302.012 103.748H299.012ZM301.952 107.497L309.262 108.959L309.85 106.017L302.54 104.555L301.952 107.497ZM309.262 108.959C310.227 109.152 310.801 109.536 311.157 110.015C311.529 110.515 311.796 111.298 311.796 112.52H314.796C314.796 110.886 314.44 109.402 313.565 108.225C312.674 107.027 311.378 106.323 309.85 106.017L309.262 108.959ZM311.796 112.52V114.798H314.796V112.52H311.796ZM311.796 114.798C311.796 116.301 311.421 117.152 310.935 117.639C310.448 118.125 309.597 118.5 308.094 118.5V121.5C310.059 121.5 311.809 121.008 313.056 119.76C314.304 118.513 314.796 116.763 314.796 114.798H311.796ZM308.094 118.5H299.186V121.5H308.094V118.5ZM300.107 118.816L298.577 117.626L296.735 119.994L298.265 121.184L300.107 118.816ZM327.919 120H326.419V121.5H327.919V120ZM327.919 96.54V95.04H326.419V96.54H327.919ZM343.219 96.54H344.719V95.04H343.219V96.54ZM343.219 99.124V100.624H344.719V99.124H343.219ZM330.775 99.124V97.624H329.275V99.124H330.775ZM330.775 106.4H329.275V107.9H330.775V106.4ZM342.199 106.4H343.699V104.9H342.199V106.4ZM342.199 108.984V110.484H343.699V108.984H342.199ZM330.775 108.984V107.484H329.275V108.984H330.775ZM330.775 117.416H329.275V118.916H330.775V117.416ZM343.219 117.416H344.719V115.916H343.219V117.416ZM343.219 120V121.5H344.719V120H343.219ZM329.419 120V96.54H326.419V120H329.419ZM327.919 98.04H343.219V95.04H327.919V98.04ZM341.719 96.54V99.124H344.719V96.54H341.719ZM343.219 97.624H330.775V100.624H343.219V97.624ZM329.275 99.124V106.4H332.275V99.124H329.275ZM330.775 107.9H342.199V104.9H330.775V107.9ZM340.699 106.4V108.984H343.699V106.4H340.699ZM342.199 107.484H330.775V110.484H342.199V107.484ZM329.275 108.984V117.416H332.275V108.984H329.275ZM330.775 118.916H343.219V115.916H330.775V118.916ZM341.719 117.416V120H344.719V117.416H341.719ZM343.219 118.5H327.919V121.5H343.219V118.5Z" fill="white"/>
<path fill-rule="evenodd" clip-rule="evenodd" d="M21.6857 109.169C21.1857 110.669 20.5857 113.769 22.1857 114.169C24.1857 114.669 27.1849 115.169 30.1849 115.169C30.5396 115.169 30.9851 115.155 31.5075 115.139C35.4033 115.016 43.5716 114.76 50.1849 119.169C56.1849 123.169 59.0182 125.169 59.6849 125.669C61.1849 123.836 64.4849 119.969 65.6849 119.169C67.1849 118.169 69.1849 116.669 68.6849 114.669C68.5258 114.033 68.1642 113.295 67.7451 112.44C66.8471 110.608 65.6849 108.237 65.6849 105.169C65.6849 101.794 66.2474 100.669 66.7396 99.6845C66.9036 99.3564 67.0599 99.0439 67.1849 98.6689C67.6849 97.1689 67.6849 96.1689 67.6849 95.6689C67.6849 95.647 67.6839 95.606 67.6825 95.5473C67.6526 94.2642 67.4256 84.5376 72.6849 81.6689C78.1849 78.6689 78.6849 78.1689 79.6849 76.6689C79.8657 76.3977 80.3407 75.4238 81.033 74.0041C84.17 67.5715 91.7697 51.9881 96.6849 51.1689C101.485 50.3689 101.018 50.1689 100.185 50.1689L75.1849 27.1689C66.1849 20.1689 46.0849 5.56892 37.6849 3.16892C36.577 2.85238 35.5749 2.56367 34.6632 2.30103C26.9349 0.0745375 25.7101 -0.278326 21.6849 0.168918C21.5468 0.18426 21.4035 0.200074 21.2555 0.216416C16.5787 0.732643 7.12351 1.77631 5.18488 5.16891C4.68774 6.03891 4.00524 6.90891 3.29863 7.80963C1.16258 10.5325 -1.19369 13.5361 0.684885 17.6689C2.68488 22.0689 6.51866 30.8356 8.18555 34.6689C8.51888 35.5022 8.78555 37.5689 7.18555 39.1689C6.9583 39.3962 6.73106 39.6105 6.50895 39.82C4.77625 41.4543 3.35598 42.7938 4.68555 47.6689C4.9412 48.6063 5.37115 50.1537 5.9135 52.1057C8.55329 61.6066 13.856 80.6915 14.6855 85.6689C15.6855 91.6689 19.6855 96.1689 21.1855 97.1689C21.6483 97.4774 22.2062 97.7383 22.7565 97.9957C23.9901 98.5726 25.1855 99.1316 25.1855 100.169C25.1855 101.256 24.7859 102.425 24.5296 103.007L24.4549 103.169L21.6857 109.169ZM14.6855 22.1689C11.3765 22.1689 8.68554 19.4779 8.68554 16.1689C8.68554 12.8599 11.3765 10.1689 14.6855 10.1689C17.9945 10.1689 20.6855 12.8599 20.6855 16.1689C20.6855 17.7179 20.0905 19.1269 19.1235 20.1919L28.7885 29.8569C30.1435 28.8029 31.8395 28.1689 33.6855 28.1689C35.5315 28.1689 37.2275 28.8029 38.5835 29.8569L46.2525 22.1879C45.9005 21.5929 45.6855 20.9089 45.6855 20.1689C45.6855 17.9629 47.4795 16.1689 49.6855 16.1689C51.8915 16.1689 53.6855 17.9629 53.6855 20.1689C53.6855 22.3749 51.8915 24.1689 49.6855 24.1689C48.9455 24.1689 48.2615 23.9539 47.6655 23.6009L39.9965 31.2699C40.8565 32.3759 41.4325 33.7099 41.6155 35.1679L66.7755 43.1679C67.2545 40.3349 69.7185 38.1679 72.6855 38.1679C75.9945 38.1679 78.6855 40.8589 78.6855 44.1679C78.6855 47.4769 75.9945 50.1679 72.6855 50.1679C69.7175 50.1679 67.2535 48.0009 66.7755 45.1679L41.6155 37.1679C41.4325 38.6259 40.8565 39.9599 39.9965 41.0659L52.8255 53.8949C53.6765 53.4319 54.6505 53.1689 55.6855 53.1689C58.9945 53.1689 61.6855 55.8599 61.6855 59.1689C61.6855 62.4779 58.9945 65.1689 55.6855 65.1689C52.3765 65.1689 49.6855 62.4779 49.6855 59.1689C49.6855 57.6199 50.2805 56.2109 51.2475 55.1449L38.5825 42.4809C37.2275 43.5349 35.5315 44.1689 33.6855 44.1689C31.8395 44.1689 30.1435 43.5349 28.7875 42.4809L21.1185 55.1499C21.4705 55.7449 21.6855 56.4289 21.6855 57.1689C21.6855 59.3749 19.8915 61.1689 17.6855 61.1689C15.4795 61.1689 13.6855 59.3749 13.6855 57.1689C13.6855 54.9629 15.4795 53.1689 17.6855 53.1689C18.4255 53.1689 19.1095 53.3839 19.7045 53.7359L27.3735 41.0669C26.3195 39.7109 25.6855 38.0149 25.6855 36.1689C25.6855 34.3229 26.3195 32.6269 27.3745 31.2719L17.5455 21.4429C16.6945 21.9059 15.7205 22.1689 14.6855 22.1689Z" fill="white"/>
<path d="M38.8418 93.2837H35.4043C34.4551 93.2837 33.6855 94.0532 33.6855 95.0024C33.6855 95.9517 34.4551 96.7212 35.4043 96.7212H38.8418C39.791 96.7212 40.5605 95.9517 40.5605 95.0024C40.5605 94.0532 39.791 93.2837 38.8418 93.2837ZM48.5252 76.5116C49.0013 77.3361 50.0534 77.614 50.873 77.1406C51.6951 76.666 51.9767 75.6148 51.5021 74.7928L49.7834 71.8158C49.3089 70.9938 48.2576 70.712 47.4355 71.1868C46.6135 71.6614 46.3319 72.7125 46.8065 73.5346L48.5252 76.5116ZM42.6947 82.3421L39.7177 80.6234C38.8957 80.1487 37.8443 80.4304 37.3699 81.2524C36.8953 82.0745 37.1769 83.1256 37.9989 83.6003L40.9759 85.319C41.7952 85.792 42.8476 85.5147 43.3237 84.6899C43.7983 83.8679 43.5167 82.8167 42.6947 82.3421ZM71.498 77.1406C72.3172 77.6136 73.3695 77.3364 73.8459 76.5116L75.5646 73.5346C76.0393 72.7125 75.7577 71.6614 74.9355 71.1868C74.1134 70.712 73.0622 70.9938 72.5877 71.8158L70.869 74.7928C70.3943 75.6148 70.6759 76.666 71.498 77.1406ZM61.1855 74.3774C62.1348 74.3774 62.9043 73.6079 62.9043 72.6587V69.2212C62.9043 68.272 62.1348 67.5024 61.1855 67.5024C60.2363 67.5024 59.4668 68.272 59.4668 69.2212V72.6587C59.4668 73.6079 60.2363 74.3774 61.1855 74.3774ZM61.1855 77.8149C51.7084 77.8149 43.998 85.5253 43.998 95.0024C43.998 101.251 46.9738 104.539 49.5989 107.442C52.1266 110.237 54.3105 112.652 54.3105 117.575L61.4147 119.982L66.6855 117.669C66.6855 112.745 70.2445 110.237 72.7722 107.442C75.3973 104.539 78.373 101.251 78.373 95.0024C78.373 85.5253 70.6627 77.8149 61.1855 77.8149Z" fill="url(#paint0_linear)"/>
<path d="M54.2889 119.294C54.2889 119.888 53.7084 121.545 53.8505 122.095C55.4801 123.725 56.3149 124.539 59.5542 126.169C61.6856 123.169 65.6856 119.169 68.1856 117.169C68.3277 116.619 68.6856 117.113 68.6856 114.669L68.1856 112.669L54.2889 117.575V119.294Z" fill="url(#paint1_linear)"/>
<defs>
<linearGradient id="paint0_linear" x1="61.1855" y1="119.982" x2="61.1855" y2="67.5024" gradientUnits="userSpaceOnUse">
<stop stop-color="#FCE838"/>
<stop offset="1" stop-color="#FCAE38"/>
</linearGradient>
<linearGradient id="paint1_linear" x1="61.1639" y1="126.169" x2="61.1639" y2="93.2835" gradientUnits="userSpaceOnUse">
<stop stop-color="#FC9638"/>
<stop offset="1" stop-color="#FFFFD5"/>
</linearGradient>
</defs>
</svg>
